<svg xmlns="http://www.w3.org/2000/svg" class="icon" viewBox="0 0 1024 1280" version="1.1" x="0px" y="0px"><path fill="#000000" d="M126.08 458.88c-7.68 0-15.36-2.56-21.76-8.32-12.8-12.16-13.44-32-1.92-45.44 109.44-117.76 264.32-184.96 424.96-184.96 161.28 0 311.68 64.64 422.4 183.04 12.16 12.8 11.52 33.28-1.28 45.44-12.8 12.16-33.28 11.52-45.44-1.28-98.56-104.96-232.32-162.56-375.68-162.56-142.72 0-280.32 60.16-378.24 165.12-5.76 5.12-14.72 8.96-23.04 8.96zM266.88 652.16c-7.68 0-15.36-2.56-21.12-8.32-13.44-11.52-14.08-32-2.56-45.44C315.52 518.4 419.2 471.68 527.36 471.68c106.88 0 209.92 45.44 282.24 124.16 12.16 12.8 10.88 33.28-1.92 45.44-12.8 12.16-33.28 10.88-45.44-1.92-60.16-65.92-145.92-103.68-234.88-103.68-90.24 0-176.64 38.4-236.8 105.6-6.4 7.04-14.72 10.88-23.68 10.88zM383.36 837.12c-7.04 0-14.08-2.56-20.48-7.04-13.44-11.52-15.36-31.36-4.48-44.8 41.6-50.56 103.04-79.36 168.96-79.36 64 0 124.8 28.16 166.4 76.8 11.52 13.44 9.6 33.92-3.84 44.8-13.44 11.52-33.92 9.6-44.8-3.84-29.44-34.56-72.32-54.4-117.76-54.4-46.08 0-89.6 20.48-119.04 56.32-6.4 7.68-16 11.52-24.96 11.52z"/><text x="0" y="1039" fill="#000000" font-size="5px" font-weight="bold" font-family="'Helvetica Neue', Helvetica, Arial-Unicode, Arial, Sans-serif">Created by Dao Ge</text><text x="0" y="1044" fill="#000000" font-size="5px" font-weight="bold" font-family="'Helvetica Neue', Helvetica, Arial-Unicode, Arial, Sans-serif">from the Noun Project</text></svg>